<?xml version="1.0" encoding="utf-8"?>
<!-- Generator: Adobe Illustrator 26.3.1, SVG Export Plug-In . SVG Version: 6.00 Build 0)  -->
<svg version="1.1" id="Layer_1" xmlns="http://www.w3.org/2000/svg" xmlns:xlink="http://www.w3.org/1999/xlink" x="0px" y="0px"
	 viewBox="0 0 1080 1080" style="enable-background:new 0 0 1080 1080;" xml:space="preserve">
<style type="text/css">
	.st0{fill-rule:evenodd;clip-rule:evenodd;fill:#3C6E71;}
</style>
<g>
	<path class="st0" d="M442.7,274.3l12.1,22.4l5.9,32.1l-1.9,22.5l-7.4,31.8l2.7,29.2l3.6,22.7l4.5,24l-1.5,32.7l-2.3,29.1l1.6,26.7
		l-0.4,20.6l-1.1,21.6l-3,22.2l-1.2,19.3l5.9,8.1l13.2-1.4l11.8-7.3l11-18.1l9.4-14l9.7-12.8l11.9-17.4l9.5-9.5l7.5-17.8l14.9-20.6
		l12.3-18.9l12.2-16.2l7.6-13.3l9.5-11.8l2.7-16.2l11.3-12.5l2-13.5l16-6.3l12-22.4l15.5-16l14.6-19.5l12.9-14.3l11.7-11.8
		l14.4-16.2l16.8-14.5l1.9-13l16.2-19.1l6.2-17l7.7-8.8l6.7-2.5c-1.7-3.9-3.5-7.7-5.1-11.6c-10.6-27.1-4.6-74.2,25.4-90.3
		c0,0,8-4.3,9.2-5c6.4-3.5,9.2-7.3,9.5-11.3c0.9-14.2-31.1-29.6-47.4-32.3c-10.3-1.7-21.3-1.5-30.5-6.2
		c-11.5-5.8-17.7-17.8-26.1-27.3c-22.1-24.9-45.2-2.9-65.9,11.2c-3.6,2.5-7.5,7.1-4.5,10.2c-6.8,0.5-11.6,6-17.2,9.6
		c-5.4,3.5-11.9,5.3-18.1,7.2c-24.8,7.6-49.5,18.1-66.6,36.7c-16.2,17.5-24.1,40.2-35.5,60.8c-14.6,26.2-35.8,46.5-54.2,70
		c-2.5,3.2-4.9,6.4-7.3,9.6L442.7,274.3z"/>
	<path class="st0" d="M754.7,306l-14.1,17.4l-11.7,21.3l-17.2,23.4l-16.4,22.4l-26.2,33l-7.6,13.3l-8.3,18.8l-8.5,17l-9.3,20.7
		L624.3,521L614,546l-12.4,26.7l-5.7,19.4l-10.1,19.4l-10.4,20.5l-12,17.9l-28.7,34.1l-6,11.5l-14.2,15.1l-15.7,9.7l-11,15.9
		l-12.4,10l-8.7,18.1l-11.2,16.9l-20.6,11.4l-22.9,4.7l-15.9-6l-14.7-11.3l-4.9-17.4l0.9-18.2l4-17l8.7-13.1l-2-15.6l-1.4-20.5
		l3-17.7l6.6-23.6l-0.4-17.4l4.8-20.7l-4.1-11l4.4-14.1l-2.2-14.5l-1.5-38.9l-4.3-15l0.5-16.7l0.4-20.6l7.5-17.8L391.3,434l-1-24.3
		l-6.1-17.1l0.1-17.3l-7.3-16.3c-24.8,44.3-47.5,90.1-72.1,132.6c-17,29.5-16,56.4-17.8,88.3c-1.9,33.5-16.4,65.6-15.3,99.3
		c0.8,24,10.1,46.8,19.4,69.2c18.6,45.1,30.2,99.7,70.6,131.6c34.1,27,67.5,40.1,84.2,82.1c6.5,19.2-2.2,61.1,11.6,75.1l1.4,0.7
		l1.5,0.8l1.9,0l29.9-0.3l15.9-31.5l0.6-1.6c0,0,0.4-17.2,0.4-17.2c-2.9-53.2-3.7-94.4,27.7-141.5c22-32.9,50.4-61.6,72.9-94.2
		c42.3-61.2,65.9-136.6,76.9-208.5c9.6-63,9.6-130,44-184.7c6.4-10.2,14.1-20,18.2-31.2c2.6-7.1,3.7-14.7,6-21.9
		c0-0.1,0.1-0.2,0.1-0.3L754.7,306z"/>
</g>
</svg>
