<?xml version="1.0" encoding="utf-8"?>
<!-- Generator: Adobe Illustrator 25.4.1, SVG Export Plug-In . SVG Version: 6.00 Build 0)  -->
<svg version="1.1" id="Layer_1" xmlns="http://www.w3.org/2000/svg" xmlns:xlink="http://www.w3.org/1999/xlink" x="0px" y="0px"
	 viewBox="0 0 487 113" style="enable-background:new 0 0 487 113;" xml:space="preserve">
<style type="text/css">
	.st0{fill:#FFFFFF;}
</style>
<g>
	<path class="st0" d="M25.43,28.34H17v-3.51h20.54v3.51h-8.31v48.29h-3.8V28.34z"/>
	<path class="st0" d="M54.12,70.76c0,2.81,0.07,4.96,0.15,5.87h-3.61c-0.22-1.09-0.33-2.65-0.35-3.39c-1.2,3.24-3.82,4.01-6.34,4.01
		c-5.47,0-7.63-4.7-7.63-10.81v-0.7c0-8.27,4.77-11.79,11.66-11.79c0.74,0,1.31,0,2.26,0v-7.02c0-3.87-0.77-6.48-4.32-6.48
		c-3.54,0-4.59,2.68-4.59,6.18v1.32h-3.78v-1.3c0-5.31,2.12-9.67,8.48-9.67c6.29,0,8.06,4.33,8.06,9.7V70.76z M50.36,57.21
		c-0.57,0-1.66,0-2.34,0c-5.04,0-7.89,2.22-7.89,8.39v0.69c0,4,1.14,7.41,4.64,7.41c4.29,0,5.59-3.63,5.59-9.88V57.21z"/>
	<path class="st0" d="M61.86,37.61h3.8v39.02h-3.8V37.61z M61.87,22.52h3.8v7.64h-3.8V22.52z"/>
	<path class="st0" d="M74.77,37.61c3.24,20.66,4.41,28.52,4.85,33.93h0.08c0.6-5.22,1.55-11.29,5.59-33.93h4.2
		c3.81,22.79,4.87,28.85,5.32,33.81h0.08c0.39-4.39,1.13-9.74,4.99-33.81h3.87l-6.84,39.02H92.5C90.2,62.6,88,49.67,87.25,43.45
		h-0.08c-0.47,5.95-2.53,17.1-5.49,33.18h-4.42l-6.52-39.02H74.77z"/>
	<path class="st0" d="M124.22,70.76c0,2.81,0.07,4.96,0.15,5.87h-3.61c-0.22-1.09-0.33-2.65-0.35-3.39
		c-1.2,3.24-3.82,4.01-6.34,4.01c-5.47,0-7.63-4.7-7.63-10.81v-0.7c0-8.27,4.77-11.79,11.66-11.79c0.74,0,1.31,0,2.26,0v-7.02
		c0-3.87-0.77-6.48-4.32-6.48c-3.54,0-4.59,2.68-4.59,6.18v1.32h-3.78v-1.3c0-5.31,2.12-9.67,8.48-9.67c6.29,0,8.06,4.33,8.06,9.7
		V70.76z M120.46,57.21c-0.57,0-1.66,0-2.34,0c-5.04,0-7.89,2.22-7.89,8.39v0.69c0,4,1.14,7.41,4.64,7.41
		c4.29,0,5.59-3.63,5.59-9.88V57.21z"/>
	<path class="st0" d="M131.96,49.38c0-7.76,0-9.72-0.08-11.77h3.61c0.09,0.87,0.18,2.1,0.18,4.15c1.16-3.28,3.65-4.77,7.12-4.77
		c3.93,0,7.46,2.12,7.46,9.15v30.49h-3.8V46.92c0-3.96-1.31-6.35-4.62-6.35c-3.63,0-6.07,1.73-6.07,10.59v25.46h-3.8V49.38z"/>
	<path class="st0" d="M174.71,76.63l-9.01-51.8h4.11l3.93,24.7c1.18,7.42,2.97,17.32,3.43,22.27h0.09c0.4-4.89,2.27-14.8,3.43-22.05
		l4.15-24.92h4.03l-9.22,51.8H174.71z"/>
	<path class="st0" d="M194.9,57.57v6.85c0,4.5,0.83,9.45,5.31,9.45c4.13,0,5.03-3.18,5.03-7.58v-0.42h3.76v0.35
		c0,4.83-1.18,11.02-8.88,11.02c-6.87,0-8.98-4.77-8.98-12.71V48.76c0-6.33,2.34-11.77,9.17-11.77c6.95,0,8.79,5.56,8.79,11.82
		c0,2.01,0,6.56,0,8.76H194.9z M205.36,54.27v-5.51c0-3.66-0.41-8.4-5.12-8.4c-4.53,0-5.32,3.95-5.32,8.46v5.44H205.36z"/>
	<path class="st0" d="M232.97,76.79c0,7.39-0.92,13.69-9.72,13.69c-7.32,0-8.82-5.21-8.82-9.39v-0.22h3.87v0.28
		c0,2.55,0.96,5.96,5.16,5.96c4.6,0,5.72-3.38,5.72-9.5v-5.55c-1.07,3.01-3.13,4.41-6.72,4.41c-5.14,0-7.97-3.51-7.97-11.74V48.41
		c0-7.97,3.67-11.42,8.75-11.42c3.94,0,5.84,2.13,6.34,3.99c0-1.05,0.17-2.43,0.26-3.37h3.29c-0.08,1.97-0.16,5.69-0.16,10.64V76.79
		z M218.35,48.56v15.82c0,5.75,1.57,8.54,4.83,8.54c5.25,0,6.05-5.75,6.05-11.34V49.99c0-5.32-0.57-9.41-5.47-9.41
		C219.81,40.58,218.35,43.67,218.35,48.56z"/>
	<path class="st0" d="M243.29,57.57v6.85c0,4.5,0.83,9.45,5.31,9.45c4.13,0,5.03-3.18,5.03-7.58v-0.42h3.76v0.35
		c0,4.83-1.18,11.02-8.88,11.02c-6.87,0-8.98-4.77-8.98-12.71V48.76c0-6.33,2.34-11.77,9.17-11.77c6.95,0,8.79,5.56,8.79,11.82
		c0,2.01,0,6.56,0,8.76H243.29z M253.75,54.27v-5.51c0-3.66-0.41-8.4-5.12-8.4c-4.53,0-5.32,3.95-5.32,8.46v5.44H253.75z"/>
	<path class="st0" d="M260.51,37.61h4.71v-9.75h3.74v9.75h5.93v3.43h-5.93v28.42c0,2.12,0.43,4.36,2.96,4.36
		c0.76,0,2.03-0.08,2.68-0.23v3.06c-1.07,0.37-2.64,0.46-3.87,0.46c-3.01,0-5.51-1.56-5.51-6.95V41.04h-4.71V37.61z"/>
	<path class="st0" d="M295.6,70.76c0,2.81,0.07,4.96,0.15,5.87h-3.61c-0.22-1.09-0.33-2.65-0.35-3.39c-1.2,3.24-3.82,4.01-6.34,4.01
		c-5.47,0-7.63-4.7-7.63-10.81v-0.7c0-8.27,4.77-11.79,11.66-11.79c0.74,0,1.31,0,2.26,0v-7.02c0-3.87-0.77-6.48-4.32-6.48
		c-3.54,0-4.59,2.68-4.59,6.18v1.32h-3.78v-1.3c0-5.31,2.12-9.67,8.48-9.67c6.29,0,8.06,4.33,8.06,9.7V70.76z M291.83,57.21
		c-0.57,0-1.66,0-2.34,0c-5.04,0-7.89,2.22-7.89,8.39v0.69c0,4,1.14,7.41,4.64,7.41c4.29,0,5.59-3.63,5.59-9.88V57.21z"/>
	<path class="st0" d="M303.33,50.93c0-6.16,0.01-10.23-0.08-13.32h3.66c0.08,1.22,0.17,2.95,0.17,5.94c1.37-4.48,4.67-6.3,7.95-6.43
		v4.71c-5.08,0.07-7.9,4.02-7.9,10.4v24.4h-3.8V50.93z"/>
	<path class="st0" d="M319.23,37.61h3.8v39.02h-3.8V37.61z M319.24,22.52h3.8v7.64h-3.8V22.52z"/>
	<path class="st0" d="M346.47,70.76c0,2.81,0.07,4.96,0.15,5.87h-3.61c-0.22-1.09-0.33-2.65-0.35-3.39
		c-1.2,3.24-3.82,4.01-6.34,4.01c-5.47,0-7.63-4.7-7.63-10.81v-0.7c0-8.27,4.77-11.79,11.66-11.79c0.74,0,1.31,0,2.26,0v-7.02
		c0-3.87-0.77-6.48-4.32-6.48c-3.54,0-4.59,2.68-4.59,6.18v1.32h-3.78v-1.3c0-5.31,2.12-9.67,8.48-9.67c6.29,0,8.06,4.33,8.06,9.7
		V70.76z M342.7,57.21c-0.57,0-1.66,0-2.34,0c-5.04,0-7.89,2.22-7.89,8.39v0.69c0,4,1.14,7.41,4.64,7.41c4.29,0,5.59-3.63,5.59-9.88
		V57.21z"/>
	<path class="st0" d="M354.2,49.38c0-7.76,0-9.72-0.08-11.77h3.61c0.09,0.87,0.18,2.1,0.18,4.15c1.16-3.28,3.65-4.77,7.12-4.77
		c3.93,0,7.46,2.12,7.46,9.15v30.49h-3.8V46.92c0-3.96-1.31-6.35-4.62-6.35c-3.63,0-6.07,1.73-6.07,10.59v25.46h-3.8V49.38z"/>
	<path class="st0" d="M415.89,53.4c0-9.97,0.21-19.71,0.36-24.98h-0.08c-1.36,8.49-6.07,32.54-9.2,48.21h-3.91
		c-2.4-13.23-7.3-39.14-8.59-48.22h-0.16c0.16,5.98,0.45,17.76,0.45,26.61v21.61h-3.66v-51.8h5.59c3.41,16.79,7.72,38.7,8.42,44.84
		h0.08c0.79-5.84,5.55-29.07,8.91-44.84h5.58v51.8h-3.79V53.4z"/>
	<path class="st0" d="M443.71,70.76c0,2.81,0.06,4.96,0.16,5.87h-3.61c-0.22-1.09-0.34-2.65-0.35-3.39
		c-1.2,3.24-3.82,4.01-6.34,4.01c-5.47,0-7.63-4.7-7.63-10.81v-0.7c0-8.27,4.77-11.79,11.66-11.79c0.74,0,1.31,0,2.26,0v-7.02
		c0-3.87-0.77-6.48-4.32-6.48c-3.54,0-4.59,2.68-4.59,6.18v1.32h-3.78v-1.3c0-5.31,2.12-9.67,8.48-9.67c6.29,0,8.06,4.33,8.06,9.7
		V70.76z M439.95,57.21c-0.57,0-1.66,0-2.33,0c-5.04,0-7.89,2.22-7.89,8.39v0.69c0,4,1.14,7.41,4.64,7.41
		c4.29,0,5.58-3.63,5.58-9.88V57.21z"/>
	<path class="st0" d="M455.25,73.13v16.73h-3.8V48.9c0-5.36,0-8.76-0.08-11.29h3.61c0.09,0.89,0.18,2.3,0.18,4.4
		c0.85-2.69,2.9-5.02,6.99-5.02c5.27,0,7.85,3.45,7.85,11.21v16.95c0,8.41-3.6,12.1-8.26,12.1
		C457.49,77.25,455.94,74.98,455.25,73.13z M466.13,65.29V48.08c0-5.55-2.11-7.5-4.82-7.5c-5.17,0-6.13,4.73-6.13,10.21v12.24
		c0,4.93,0.58,10.64,5.76,10.64C464.52,73.66,466.13,70.71,466.13,65.29z"/>
</g>
</svg>
